<svg xmlns="http://www.w3.org/2000/svg" xmlns:xlink="http://www.w3.org/1999/xlink" width="18" height="18" viewBox="0 0 18 18">
  <defs>
    <clipPath id="clip-path">
      <rect id="사각형_135" data-name="사각형 135" width="18" height="18" transform="translate(8210 -152)" fill="#fff" stroke="#707070" stroke-width="1"/>
    </clipPath>
  </defs>
  <g id="close" transform="translate(-8210 152)" clip-path="url(#clip-path)">
    <path id="_9ca1ebc695b5f509e80555d259dbb4b7" data-name="9ca1ebc695b5f509e80555d259dbb4b7" d="M15.075,13.5l7.088-7.088a1.114,1.114,0,0,0-1.575-1.575L13.5,11.925,6.412,4.838A1.114,1.114,0,0,0,4.837,6.413L11.925,13.5,4.838,20.587a1.021,1.021,0,0,0-.338.788A1.063,1.063,0,0,0,5.625,22.5a1.021,1.021,0,0,0,.787-.337L13.5,15.075l7.087,7.087a1.088,1.088,0,0,0,1.575,0,1.087,1.087,0,0,0,0-1.575Z" transform="translate(8205.5 -156.5)"/>
  </g>
</svg>
