<svg xmlns="http://www.w3.org/2000/svg" xmlns:xlink="http://www.w3.org/1999/xlink" width="156.943" height="23.982" viewBox="0 0 156.943 23.982">
  <defs>
    <clipPath id="clip-path">
      <rect id="사각형_7" data-name="사각형 7" width="156.943" height="23.982" fill="none"/>
    </clipPath>
  </defs>
  <g id="ft_logo" transform="translate(0 0)">
    <rect id="사각형_6" data-name="사각형 6" width="96.836" height="22.995" transform="translate(0 0.36)" fill="#eedbbf"/>
    <g id="ft_logo-2" data-name="ft_logo" transform="translate(0 0)">
      <g id="그룹_4" data-name="그룹 4" clip-path="url(#clip-path)">
        <path id="패스_4" data-name="패스 4" d="M122.678.686V8.14a4.488,4.488,0,0,1,3.81-.9c2.4.377,3.911,2.479,3.911,5.114s-1.391,4.152-4.011,4.579c-1.437.234-2.8.234-3.677-.87l-.034,7.621H191.4v-23Z" transform="translate(-34.518 -0.193)" fill="#eece92"/>
        <path id="패스_5" data-name="패스 5" d="M191.444.521,122.618.5V8.266a5.035,5.035,0,0,1,2.807-.847,4.817,4.817,0,0,1,4.915,4.713,4.817,4.817,0,0,1-4.915,4.713A5.03,5.03,0,0,1,122.618,16v7.766h26.693" transform="translate(-34.501 -0.141)" fill="none" stroke="#000" stroke-miterlimit="10" stroke-width="1"/>
        <text id="BLENDING" transform="translate(2.052 17.377)" font-size="17" font-family="Montserrat-SemiBold, Montserrat" font-weight="600"><tspan x="0" y="0" letter-spacing="-0.099em">B</tspan><tspan y="0" letter-spacing="-0.1em">L</tspan><tspan y="0" letter-spacing="-0.099em">E</tspan><tspan y="0" letter-spacing="-0.1em">N</tspan><tspan y="0" letter-spacing="-0.099em">DI</tspan><tspan y="0" letter-spacing="-0.1em">N</tspan><tspan y="0">G</tspan></text>
        <text id="TREND" transform="translate(98.377 17.377)" font-size="17" font-family="Montserrat-SemiBold, Montserrat" font-weight="600"><tspan x="0" y="0" letter-spacing="-0.099em">TRE</tspan><tspan y="0" letter-spacing="-0.1em">N</tspan><tspan y="0">D</tspan></text>
        <path id="패스_6" data-name="패스 6" d="M63.673.5H88.14V7.969A5.274,5.274,0,0,1,90.9,7.2a5.045,5.045,0,0,1,5.153,4.934A5.049,5.049,0,0,1,90.9,17.066a5.267,5.267,0,0,1-2.76-.772v7.469H.012" transform="translate(-0.003 -0.141)" fill="none" stroke="#000" stroke-miterlimit="10" stroke-width="1"/>
      </g>
    </g>
  </g>
</svg>
